<?xml version="1.0" encoding="UTF-8"?>
<svg xmlns="http://www.w3.org/2000/svg" xmlns:xlink="http://www.w3.org/1999/xlink" width="397" zoomAndPan="magnify" viewBox="0 0 297.75 419.249996" height="559" preserveAspectRatio="xMidYMid meet" version="1.0" style="background: transparent;"><defs><clipPath id="d63e0169d7"><path d="M 0.863281 0.640625 L 96.324219 0.640625 L 96.324219 96.101562 L 0.863281 96.101562 Z M 0.863281 0.640625 " clip-rule="nonzero"/></clipPath><clipPath id="32894df9a0"><path d="M 96.324219 48.371094 C 96.324219 22.007812 74.953125 0.640625 48.59375 0.640625 C 22.230469 0.640625 0.863281 22.007812 0.863281 48.371094 C 0.863281 74.730469 22.230469 96.101562 48.59375 96.101562 C 74.953125 96.101562 96.324219 74.730469 96.324219 48.371094 Z M 96.324219 48.371094 " clip-rule="nonzero"/></clipPath><clipPath id="a2563b4595"><path d="M 0.863281 0.640625 L 96.324219 0.640625 L 96.324219 96.101562 L 0.863281 96.101562 Z M 0.863281 0.640625 " clip-rule="nonzero"/></clipPath><clipPath id="ce16c30bc9"><path d="M 96.324219 48.371094 C 96.324219 22.007812 74.953125 0.640625 48.59375 0.640625 C 22.230469 0.640625 0.863281 22.007812 0.863281 48.371094 C 0.863281 74.730469 22.230469 96.101562 48.59375 96.101562 C 74.953125 96.101562 96.324219 74.730469 96.324219 48.371094 Z M 96.324219 48.371094 " clip-rule="nonzero"/></clipPath><clipPath id="3dcd65ebaf"><rect x="0" width="97" y="0" height="97"/></clipPath><clipPath id="0bea06df1a"><path d="M 0.863281 68.550781 L 96.324219 68.550781 L 96.324219 164.011719 L 0.863281 164.011719 Z M 0.863281 68.550781 " clip-rule="nonzero"/></clipPath><clipPath id="6d2973b7a4"><path d="M 96.324219 116.28125 C 96.324219 89.917969 74.953125 68.550781 48.59375 68.550781 C 22.230469 68.550781 0.863281 89.917969 0.863281 116.28125 C 0.863281 142.644531 22.230469 164.011719 48.59375 164.011719 C 74.953125 164.011719 96.324219 142.644531 96.324219 116.28125 Z M 96.324219 116.28125 " clip-rule="nonzero"/></clipPath><clipPath id="216d0f8b7e"><path d="M 0.863281 0.550781 L 96.324219 0.550781 L 96.324219 96.011719 L 0.863281 96.011719 Z M 0.863281 0.550781 " clip-rule="nonzero"/></clipPath><clipPath id="10df5fe927"><path d="M 96.324219 48.28125 C 96.324219 21.917969 74.953125 0.550781 48.59375 0.550781 C 22.230469 0.550781 0.863281 21.917969 0.863281 48.28125 C 0.863281 74.644531 22.230469 96.011719 48.59375 96.011719 C 74.953125 96.011719 96.324219 74.644531 96.324219 48.28125 Z M 96.324219 48.28125 " clip-rule="nonzero"/></clipPath><clipPath id="288d2a31bd"><rect x="0" width="97" y="0" height="97"/></clipPath><clipPath id="4fe9414de5"><path d="M 0.863281 146.027344 L 96.324219 146.027344 L 96.324219 241.492188 L 0.863281 241.492188 Z M 0.863281 146.027344 " clip-rule="nonzero"/></clipPath><clipPath id="303cf2d50f"><path d="M 96.324219 193.761719 C 96.324219 167.398438 74.953125 146.027344 48.59375 146.027344 C 22.230469 146.027344 0.863281 167.398438 0.863281 193.761719 C 0.863281 220.121094 22.230469 241.492188 48.59375 241.492188 C 74.953125 241.492188 96.324219 220.121094 96.324219 193.761719 Z M 96.324219 193.761719 " clip-rule="nonzero"/></clipPath><clipPath id="8d69dbaf1f"><path d="M 0.863281 0.0273438 L 96.324219 0.0273438 L 96.324219 95.492188 L 0.863281 95.492188 Z M 0.863281 0.0273438 " clip-rule="nonzero"/></clipPath><clipPath id="1d23ac7cfa"><path d="M 96.324219 47.761719 C 96.324219 21.398438 74.953125 0.0273438 48.59375 0.0273438 C 22.230469 0.0273438 0.863281 21.398438 0.863281 47.761719 C 0.863281 74.121094 22.230469 95.492188 48.59375 95.492188 C 74.953125 95.492188 96.324219 74.121094 96.324219 47.761719 Z M 96.324219 47.761719 " clip-rule="nonzero"/></clipPath><clipPath id="47206ff05f"><rect x="0" width="97" y="0" height="96"/></clipPath><clipPath id="0ee7343c55"><path d="M 0.863281 208.230469 L 96.324219 208.230469 L 96.324219 303.695312 L 0.863281 303.695312 Z M 0.863281 208.230469 " clip-rule="nonzero"/></clipPath><clipPath id="4b0397be8e"><path d="M 96.324219 255.960938 C 96.324219 229.601562 74.953125 208.230469 48.59375 208.230469 C 22.230469 208.230469 0.863281 229.601562 0.863281 255.960938 C 0.863281 282.324219 22.230469 303.695312 48.59375 303.695312 C 74.953125 303.695312 96.324219 282.324219 96.324219 255.960938 Z M 96.324219 255.960938 " clip-rule="nonzero"/></clipPath><clipPath id="fad671760e"><path d="M 0.863281 0.230469 L 96.324219 0.230469 L 96.324219 95.695312 L 0.863281 95.695312 Z M 0.863281 0.230469 " clip-rule="nonzero"/></clipPath><clipPath id="63c6d4ab20"><path d="M 96.324219 47.960938 C 96.324219 21.601562 74.953125 0.230469 48.59375 0.230469 C 22.230469 0.230469 0.863281 21.601562 0.863281 47.960938 C 0.863281 74.324219 22.230469 95.695312 48.59375 95.695312 C 74.953125 95.695312 96.324219 74.324219 96.324219 47.960938 Z M 96.324219 47.960938 " clip-rule="nonzero"/></clipPath><clipPath id="69f4da4d26"><rect x="0" width="97" y="0" height="96"/></clipPath><clipPath id="6a0022cc44"><path d="M 0.863281 269.511719 L 96.324219 269.511719 L 96.324219 364.976562 L 0.863281 364.976562 Z M 0.863281 269.511719 " clip-rule="nonzero"/></clipPath><clipPath id="ed1388b4b6"><path d="M 96.324219 317.242188 C 96.324219 290.882812 74.953125 269.511719 48.59375 269.511719 C 22.230469 269.511719 0.863281 290.882812 0.863281 317.242188 C 0.863281 343.605469 22.230469 364.976562 48.59375 364.976562 C 74.953125 364.976562 96.324219 343.605469 96.324219 317.242188 Z M 96.324219 317.242188 " clip-rule="nonzero"/></clipPath><clipPath id="85223e1cb7"><path d="M 0.863281 0.511719 L 96.324219 0.511719 L 96.324219 95.976562 L 0.863281 95.976562 Z M 0.863281 0.511719 " clip-rule="nonzero"/></clipPath><clipPath id="122ae74ba8"><path d="M 96.324219 48.242188 C 96.324219 21.882812 74.953125 0.511719 48.59375 0.511719 C 22.230469 0.511719 0.863281 21.882812 0.863281 48.242188 C 0.863281 74.605469 22.230469 95.976562 48.59375 95.976562 C 74.953125 95.976562 96.324219 74.605469 96.324219 48.242188 Z M 96.324219 48.242188 " clip-rule="nonzero"/></clipPath><clipPath id="73f725aa25"><rect x="0" width="97" y="0" height="96"/></clipPath><clipPath id="a594514180"><rect x="0" width="97" y="0" height="365"/></clipPath></defs><g transform="matrix(1, 0, 0, 1, 100, 20)"><g clip-path="url(#a594514180)"><g clip-path="url(#d63e0169d7)"><g clip-path="url(#32894df9a0)"><g><g clip-path="url(#3dcd65ebaf)"><g clip-path="url(#a2563b4595)"><g clip-path="url(#ce16c30bc9)"><path fill="#262b00" d="M 96.324219 0.640625 L 96.324219 96.101562 L 0.863281 96.101562 L 0.863281 0.640625 Z M 96.324219 0.640625 " fill-opacity="1" fill-rule="nonzero"/></g></g></g></g></g></g><g clip-path="url(#0bea06df1a)"><g clip-path="url(#6d2973b7a4)"><g transform="matrix(1, 0, 0, 1, 0, 68)"><g clip-path="url(#288d2a31bd)"><g clip-path="url(#216d0f8b7e)"><g clip-path="url(#10df5fe927)"><path fill="#3c4530" d="M 96.324219 0.550781 L 96.324219 96.011719 L 0.863281 96.011719 L 0.863281 0.550781 Z M 96.324219 0.550781 " fill-opacity="1" fill-rule="nonzero"/></g></g></g></g></g></g><g clip-path="url(#4fe9414de5)"><g clip-path="url(#303cf2d50f)"><g transform="matrix(1, 0, 0, 1, 0, 146)"><g clip-path="url(#47206ff05f)"><g clip-path="url(#8d69dbaf1f)"><g clip-path="url(#1d23ac7cfa)"><path fill="#54582f" d="M 96.324219 0.0273438 L 96.324219 95.492188 L 0.863281 95.492188 L 0.863281 0.0273438 Z M 96.324219 0.0273438 " fill-opacity="1" fill-rule="nonzero"/></g></g></g></g></g></g><g clip-path="url(#0ee7343c55)"><g clip-path="url(#4b0397be8e)"><g transform="matrix(1, 0, 0, 1, 0, 208)"><g clip-path="url(#69f4da4d26)"><g clip-path="url(#fad671760e)"><g clip-path="url(#63c6d4ab20)"><path fill="#87895e" d="M 96.324219 0.230469 L 96.324219 95.695312 L 0.863281 95.695312 L 0.863281 0.230469 Z M 96.324219 0.230469 " fill-opacity="1" fill-rule="nonzero"/></g></g></g></g></g></g><g clip-path="url(#6a0022cc44)"><g clip-path="url(#ed1388b4b6)"><g transform="matrix(1, 0, 0, 1, 0, 269)"><g clip-path="url(#73f725aa25)"><g clip-path="url(#85223e1cb7)"><g clip-path="url(#122ae74ba8)"><path fill="#bfc091" d="M 96.324219 0.511719 L 96.324219 95.976562 L 0.863281 95.976562 L 0.863281 0.511719 Z M 96.324219 0.511719 " fill-opacity="1" fill-rule="nonzero"/></g></g></g></g></g></g></g></g></svg>